<svg width="113" height="116" viewBox="0 0 113 116" fill="none" xmlns="http://www.w3.org/2000/svg">
<mask id="mask0_353_93" style="mask-type:luminance" maskUnits="userSpaceOnUse" x="0" y="0" width="113" height="116">
<path d="M0 0H113V115.901H0V0Z" fill="white"/>
</mask>
<g mask="url(#mask0_353_93)">
<path d="M56.7765 116.13C56.0942 116.135 55.438 116.031 54.7922 115.818L17.1515 103.271C16.5994 103.088 16.0786 102.828 15.5942 102.5C15.1099 102.172 14.6828 101.781 14.3078 101.328C13.938 100.88 13.6307 100.385 13.3963 99.8488C13.1567 99.3175 13.0005 98.7603 12.9224 98.1769L0.37549 7.21338C0.31299 6.77067 0.297365 6.32275 0.333823 5.87484C0.365073 5.43213 0.448407 4.98942 0.573407 4.56234C0.703616 4.13005 0.87549 3.71859 1.08903 3.32796C1.30778 2.93213 1.56299 2.56755 1.85466 2.229C2.15153 1.89046 2.47445 1.58838 2.83382 1.32275C3.1932 1.05192 3.57862 0.822754 3.99007 0.640462C4.39632 0.452962 4.8182 0.312338 5.2557 0.218587C5.6932 0.124838 6.14112 0.0727539 6.58903 0.0727539H106.964C107.412 0.0727539 107.855 0.124838 108.292 0.218587C108.73 0.312338 109.152 0.452962 109.558 0.640462C109.969 0.822754 110.349 1.05192 110.709 1.31755C111.068 1.58838 111.396 1.89046 111.688 2.229C111.985 2.56234 112.24 2.93213 112.454 3.32275C112.672 3.71338 112.844 4.12484 112.974 4.55713C113.099 4.98421 113.183 5.42171 113.214 5.86963C113.25 6.31755 113.235 6.76025 113.178 7.20296L100.631 98.1665C100.547 98.7498 100.391 99.3071 100.157 99.8436C99.9224 100.38 99.6151 100.875 99.2401 101.323C98.8703 101.776 98.438 102.167 97.9536 102.5C97.4744 102.828 96.9536 103.088 96.3963 103.271L58.7557 115.818C58.1151 116.031 57.4536 116.135 56.7765 116.13ZM24.8182 92.6092L56.7765 103.245L88.7297 92.5832L99.7609 12.6196H13.8026L24.8182 92.6092Z" fill="white"/>
</g>
<path d="M56.7764 89.4686C56.1618 89.4686 55.5576 89.3853 54.9691 89.2082L39.2868 84.4998C38.1774 84.1665 37.2295 83.5728 36.4535 82.7186C35.6722 81.8592 35.167 80.8644 34.9378 79.7238L34.3128 76.5884C34.2347 76.1978 34.193 75.8019 34.193 75.4009C34.1878 74.9998 34.2243 74.604 34.2972 74.2134C34.3701 73.8228 34.4795 73.4373 34.6253 73.0675C34.7712 72.6925 34.9535 72.3384 35.167 72.005C35.3805 71.6665 35.6253 71.354 35.8962 71.0623C36.1722 70.7707 36.4691 70.505 36.792 70.2759C37.1201 70.0415 37.4587 69.8384 37.8232 69.6717C38.1878 69.505 38.5628 69.3696 38.9482 69.2759C39.3337 69.1769 39.7295 69.1196 40.1253 69.0988C40.5264 69.0728 40.9222 69.0936 41.318 69.1457C41.7139 69.203 42.1045 69.2915 42.4795 69.4217C42.8597 69.5467 43.2191 69.7134 43.568 69.9113C43.917 70.1092 44.2399 70.3332 44.5472 70.5936C44.8493 70.854 45.1253 71.1405 45.3753 71.453C45.6201 71.7655 45.8389 72.0988 46.0264 72.453C46.2087 72.8071 46.3597 73.1769 46.4743 73.5571L56.7764 76.6457L66.8128 73.6353L68.3597 62.8071H50.5003C49.8649 62.8123 49.2399 62.7186 48.6305 62.5311C48.0212 62.3436 47.4535 62.0675 46.9274 61.703C46.4014 61.3436 45.943 60.9113 45.5472 60.4113C45.1514 59.9061 44.8441 59.3592 44.6149 58.7603C44.391 58.1665 44.2607 57.5519 44.2191 56.9113C44.1826 56.2759 44.2399 55.6457 44.391 55.0311C44.5472 54.4113 44.7868 53.828 45.1201 53.2811C45.4482 52.7342 45.8545 52.255 46.3337 51.8332L62.2347 37.7134H34.818C34.4066 37.7134 34.0003 37.6769 33.5941 37.5936C33.1878 37.5155 32.7972 37.3957 32.417 37.2394C32.0368 37.078 31.6774 36.8853 31.3337 36.6561C30.9899 36.4269 30.6722 36.1717 30.3805 35.88C30.0889 35.5884 29.8285 35.2707 29.5993 34.9269C29.3753 34.5832 29.1774 34.2238 29.0212 33.8436C28.8649 33.4634 28.7451 33.0675 28.667 32.6665C28.5837 32.2603 28.542 31.854 28.542 31.4425C28.542 31.0311 28.5837 30.6248 28.667 30.2186C28.7451 29.8123 28.8649 29.4217 29.0212 29.0415C29.1774 28.6613 29.3753 28.2967 29.5993 27.9582C29.8285 27.6144 30.0889 27.2967 30.3805 27.005C30.6722 26.7134 30.9899 26.453 31.3337 26.2238C31.6774 25.9946 32.0368 25.8019 32.417 25.6457C32.7972 25.4894 33.1878 25.3696 33.5941 25.2915C34.0003 25.2082 34.4066 25.1665 34.818 25.1665H78.7295C79.3701 25.1665 79.9951 25.2603 80.6045 25.4478C81.2139 25.6353 81.7816 25.9113 82.3076 26.2707C82.8285 26.6353 83.292 27.0675 83.6826 27.5675C84.0785 28.0675 84.391 28.6196 84.6149 29.2134C84.8441 29.8123 84.9743 30.4269 85.0107 31.0623C85.0524 31.703 84.9951 32.328 84.8389 32.9478C84.6878 33.5675 84.443 34.1509 84.1149 34.6978C83.7816 35.2394 83.3805 35.7238 82.9014 36.1457L67.0003 50.2603H75.5941C76.042 50.2603 76.4899 50.3123 76.9274 50.4061C77.3649 50.4998 77.792 50.6405 78.1982 50.828C78.6097 51.0155 78.9951 51.2446 79.3545 51.5103C79.7139 51.7811 80.042 52.0884 80.3337 52.4269C80.6305 52.7655 80.8857 53.13 81.0993 53.5259C81.3128 53.9217 81.4847 54.3332 81.6149 54.7655C81.7399 55.1978 81.818 55.6353 81.8545 56.0832C81.8857 56.5311 81.8701 56.979 81.8076 57.4217L78.667 79.38C78.5837 79.9738 78.417 80.5415 78.1722 81.0884C77.9222 81.63 77.6045 82.13 77.2139 82.5832C76.8232 83.0415 76.3753 83.4269 75.8753 83.755C75.3701 84.0832 74.8337 84.328 74.2607 84.4998L58.5785 89.2082C57.9899 89.3853 57.391 89.4686 56.7764 89.4686Z" fill="white"/>
</svg>
