<svg width="109" height="112" viewBox="0 0 109 112" fill="none" xmlns="http://www.w3.org/2000/svg">
<mask id="mask0_353_91" style="mask-type:luminance" maskUnits="userSpaceOnUse" x="0" y="0" width="109" height="112">
<path d="M0 0H109V112H0V0Z" fill="white"/>
</mask>
<g mask="url(#mask0_353_91)">
<path d="M54.5001 111.583C53.8491 111.589 53.2189 111.484 52.5991 111.281L16.4637 99.2396C15.9324 99.0625 15.4324 98.8125 14.9689 98.4948C14.5053 98.1771 14.0939 97.8073 13.7345 97.375C13.3751 96.9427 13.0835 96.4688 12.8595 95.9531C12.6303 95.4375 12.4793 94.9063 12.4012 94.349L0.359512 7.02604C0.297012 6.59896 0.286596 6.17188 0.317845 5.73958C0.349096 5.3125 0.42722 4.89063 0.55222 4.47917C0.672012 4.0625 0.838678 3.67188 1.04701 3.29167C1.25535 2.91667 1.50014 2.5625 1.78139 2.23958C2.06264 1.91667 2.37514 1.625 2.7241 1.36458C3.06784 1.10937 3.43764 0.890624 3.82826 0.713542C4.21889 0.53125 4.62514 0.401041 5.04701 0.307292C5.46889 0.21875 5.89076 0.171875 6.32305 0.171875H102.682C103.11 0.171875 103.537 0.21875 103.958 0.307292C104.375 0.401041 104.781 0.53125 105.172 0.713542C105.568 0.890624 105.932 1.10937 106.281 1.36458C106.625 1.61979 106.938 1.91146 107.219 2.23438C107.5 2.5625 107.75 2.91146 107.953 3.28646C108.162 3.66667 108.328 4.05729 108.453 4.46875C108.573 4.88542 108.651 5.30208 108.682 5.73438C108.719 6.16146 108.703 6.58854 108.646 7.01563L96.5991 94.3385C96.5262 94.8958 96.3751 95.4323 96.146 95.9479C95.922 96.4635 95.6303 96.9375 95.271 97.3698C94.9116 97.8021 94.5001 98.1771 94.0366 98.4948C93.5731 98.8125 93.0731 99.0625 92.5418 99.2396L56.4064 111.281C55.7866 111.484 55.1512 111.589 54.5001 111.583ZM23.8231 89L54.5001 99.2135L85.1824 88.974L95.771 12.2135H13.2501L23.8231 89Z" fill="white"/>
</g>
<path d="M54.4997 85.9899C53.9112 85.9899 53.3331 85.9066 52.7706 85.7347L37.7133 81.2191C36.6508 80.9014 35.7393 80.3285 34.9945 79.5055C34.2445 78.6826 33.7602 77.7243 33.5414 76.6357L32.9372 73.6201C32.7862 72.8649 32.781 72.1045 32.9216 71.3441C33.0675 70.5837 33.3435 69.8753 33.7602 69.2191C34.1716 68.568 34.6925 68.016 35.3227 67.5628C35.9477 67.1097 36.6404 66.7868 37.3904 66.5993C38.1404 66.4118 38.9008 66.3701 39.6664 66.4795C40.432 66.5837 41.1508 66.8285 41.8227 67.2087C42.4997 67.5941 43.0727 68.0889 43.557 68.693C44.0362 69.2972 44.3904 69.9743 44.6143 70.7139L54.4997 73.6774L64.1352 70.7868L65.6247 60.3962H36.4372C35.7029 60.3962 34.9893 60.266 34.307 60.0055C33.6195 59.7451 32.9997 59.3701 32.4477 58.8857C31.9008 58.4014 31.4529 57.8337 31.1091 57.1826C30.7706 56.5368 30.5518 55.8493 30.4633 55.1201L27.4477 31.0316C27.3956 30.6045 27.3904 30.1826 27.4268 29.7555C27.4633 29.3337 27.5466 28.917 27.6716 28.5055C27.7966 28.0993 27.9633 27.7087 28.1716 27.3389C28.38 26.9639 28.63 26.6201 28.9112 26.2972C29.1925 25.9795 29.505 25.693 29.8487 25.4378C30.1925 25.1826 30.557 24.9691 30.9477 24.792C31.3383 24.6201 31.7393 24.4847 32.156 24.3962C32.5727 24.3076 32.9945 24.2607 33.4216 24.2607H75.5779C75.9737 24.2607 76.3695 24.2972 76.755 24.3753C77.1404 24.4535 77.5206 24.568 77.8852 24.7191C78.2497 24.8701 78.5987 25.0576 78.9268 25.2764C79.255 25.4951 79.557 25.7451 79.8383 26.0264C80.1195 26.3024 80.3695 26.6097 80.5883 26.9378C80.807 27.266 80.9945 27.6149 81.1456 27.9795C81.2966 28.3441 81.4112 28.7191 81.4841 29.1097C81.5622 29.4951 81.6039 29.8857 81.6039 30.2816C81.6039 30.6774 81.5622 31.068 81.4841 31.4587C81.4112 31.8441 81.2966 32.2243 81.1456 32.5889C80.9945 32.9535 80.807 33.3024 80.5883 33.6305C80.3695 33.9587 80.1195 34.2607 79.8383 34.542C79.557 34.8232 79.255 35.068 78.9268 35.292C78.5987 35.5107 78.2497 35.693 77.8852 35.8493C77.5206 36.0003 77.1404 36.1097 76.755 36.1878C76.3695 36.266 75.9737 36.3076 75.5779 36.3076H40.2445L41.755 48.3493H72.5675C72.9997 48.3493 73.4268 48.3962 73.8487 48.4847C74.2706 48.5785 74.6768 48.7139 75.0675 48.891C75.4633 49.0732 75.8331 49.292 76.1768 49.5472C76.5206 49.8076 76.8383 50.0993 77.1195 50.4274C77.4008 50.7503 77.6456 51.1045 77.8539 51.4847C78.0622 51.8597 78.2237 52.2555 78.3487 52.6722C78.4685 53.0837 78.5466 53.5055 78.5779 53.9378C78.6091 54.3701 78.5935 54.7972 78.531 55.2243L75.5206 76.3024C75.4372 76.8701 75.281 77.417 75.0414 77.943C74.8018 78.4639 74.4997 78.943 74.1247 79.3805C73.7497 79.8128 73.3175 80.1878 72.8383 80.5003C72.3539 80.8128 71.8383 81.0524 71.2914 81.2191L56.2341 85.7347C55.6664 85.9066 55.0935 85.9899 54.4997 85.9899Z" fill="white"/>
</svg>
