<svg width="91" height="123" viewBox="0 0 91 123" fill="none" xmlns="http://www.w3.org/2000/svg">
<path d="M29.17 94.6039C29.17 94.6039 24.4669 97.4633 32.4357 98.281C42.0346 99.5049 47.1492 99.3018 57.7742 97.2601C59.9148 98.5726 62.1596 99.6612 64.5138 100.531C40.6127 110.75 10.3679 99.9216 29.1648 94.6039H29.17ZM26.1075 81.3226C26.1075 81.3226 20.9982 85.2028 28.9721 86.0258C39.3888 87.0466 47.5607 87.2497 61.6648 84.3955C63.0554 85.8018 64.6909 86.8226 66.5659 87.458C37.7586 96.0362 5.47732 88.2758 26.1075 81.3278V81.3226ZM82.5034 104.609C82.5034 104.609 85.9721 107.474 78.6232 109.718C64.9304 113.812 21.2065 115.036 8.94607 109.718C4.6544 107.885 12.8263 105.229 15.4461 104.817C18.1075 104.208 19.5398 104.208 19.5398 104.208C14.8367 100.937 -11.7206 110.948 6.05545 113.802C54.8888 121.776 95.1388 110.333 82.4721 104.609H82.5034ZM31.3784 67.4268C31.3784 67.4268 9.10753 72.7445 23.4096 74.5778C29.5398 75.3955 41.5919 75.1872 52.8315 74.3747C62.0242 73.557 71.2273 71.9268 71.2273 71.9268C71.2273 71.9268 67.9565 73.3591 65.7065 74.7862C43.0294 80.7133 -0.496639 78.057 11.9721 71.9268C22.5971 66.8174 31.3836 67.432 31.3836 67.432L31.3784 67.4268ZM71.2273 89.6976C94.1075 77.8435 83.4825 66.4112 76.1284 67.8383C74.2898 68.2445 73.4721 68.656 73.4721 68.656C73.4721 68.656 74.0815 67.432 75.5138 67.0205C90.019 61.9112 101.462 82.3435 70.8107 90.307C70.8107 90.307 71.0086 90.1091 71.2169 89.6976H71.2273ZM33.6336 121.979C55.7013 123.411 89.4148 121.161 90.2325 110.739C90.2325 110.739 88.5971 114.828 72.045 117.89C53.2482 121.359 29.9565 120.948 16.2638 118.708C16.2638 118.708 19.1284 121.156 33.6336 121.974V121.979Z" fill="white"/>
<mask id="mask0_353_94" style="mask-type:luminance" maskUnits="userSpaceOnUse" x="27" y="0" width="47" height="73">
<path d="M27.9404 0H73.2738V72.4271H27.9404V0Z" fill="white"/>
</mask>
<g mask="url(#mask0_353_94)">
<path d="M57.3672 0C57.3672 0 70.0338 12.875 45.3151 32.2865C25.4922 48.0156 40.8203 57.0052 45.3151 67.224C33.664 56.8021 25.289 47.6094 31.013 39.0313C39.388 26.3594 62.4765 20.2656 57.3672 0ZM50.8672 58.6406C56.7943 65.3854 49.2318 71.5156 49.2318 71.5156C49.2318 71.5156 64.3515 63.75 57.4036 54.1458C51.0703 44.9531 46.164 40.4583 72.7265 25.1354C72.7265 25.1354 30.8411 35.5521 50.8672 58.6406Z" fill="white"/>
</g>
</svg>
