<svg width="150" height="154" viewBox="0 0 150 154" fill="none" xmlns="http://www.w3.org/2000/svg">
<path d="M74.916 154C74.0189 154.004 73.1419 153.863 72.2851 153.582L22.3423 136.935C21.6061 136.69 20.9183 136.348 20.2746 135.909C19.635 135.471 19.0678 134.952 18.569 134.357C18.0742 133.757 17.6678 133.106 17.3581 132.394C17.0443 131.682 16.8351 130.945 16.7265 130.173L0.0802738 9.47364C-0.00420531 8.88631 -0.0202949 8.29496 0.0239549 7.69959C0.0682057 7.10825 0.176821 6.52494 0.345777 5.95371C0.514734 5.38247 0.744032 4.8394 1.02965 4.31644C1.31527 3.79348 1.65318 3.31074 2.04339 2.86019C2.43762 2.41367 2.86806 2.01139 3.34677 1.65336C3.82548 1.29936 4.33235 0.997649 4.87542 0.748236C5.41447 0.502847 5.97766 0.317799 6.56097 0.18907C7.14025 0.0643652 7.72757 0 8.32294 0H141.509C142.104 0 142.692 0.0643652 143.275 0.18907C143.854 0.317799 144.417 0.502847 144.957 0.748236C145.5 0.993625 146.006 1.29533 146.485 1.65336C146.96 2.00737 147.394 2.40964 147.785 2.85617C148.175 3.30672 148.513 3.78946 148.802 4.30839C149.088 4.83135 149.317 5.37443 149.486 5.94566C149.655 6.5169 149.764 7.09618 149.808 7.68753C149.856 8.2829 149.836 8.87424 149.756 9.46157L133.105 130.161C133.001 130.933 132.792 131.674 132.482 132.386C132.168 133.098 131.762 133.753 131.267 134.349C130.772 134.948 130.201 135.467 129.561 135.905C128.918 136.344 128.23 136.686 127.494 136.935L77.5469 153.582C76.694 153.863 75.8171 154.004 74.916 154ZM32.5159 122.783L74.916 136.899L117.32 122.751L131.959 16.6503H17.8971L32.5159 122.783Z" fill="white"/>
<path d="M62.4284 116.54C61.121 116.54 59.8779 116.246 58.7033 115.663L42.057 107.336C41.5662 107.094 41.1076 106.805 40.6732 106.467C40.2427 106.133 39.8485 105.759 39.4905 105.344C39.1284 104.934 38.8147 104.487 38.5451 104.013C38.2716 103.538 38.0503 103.043 37.8774 102.524C37.7044 102.005 37.5837 101.474 37.5153 100.931C37.4469 100.388 37.4308 99.8452 37.4711 99.2981C37.5113 98.751 37.6038 98.2159 37.7446 97.689C37.8894 97.162 38.0865 96.6511 38.3319 96.1643C38.5733 95.6736 38.867 95.215 39.2008 94.7805C39.5347 94.3501 39.9089 93.9558 40.3232 93.5978C40.7375 93.2398 41.1801 92.922 41.6588 92.6524C42.1334 92.3829 42.6283 92.1617 43.1472 91.9887C43.6661 91.8157 44.1971 91.695 44.7402 91.6266C45.2833 91.5583 45.8264 91.5462 46.3735 91.5824C46.9206 91.6226 47.4556 91.7151 47.9826 91.86C48.5095 92.0048 49.0164 92.2019 49.5072 92.4433L54.1052 94.7483V49.9467H37.459C36.9119 49.9467 36.3688 49.8944 35.8338 49.7857C35.2988 49.6812 34.7758 49.5202 34.2729 49.3111C33.7661 49.1019 33.2874 48.8484 32.8328 48.5427C32.3782 48.241 31.9598 47.895 31.5737 47.5089C31.1835 47.1227 30.8415 46.7003 30.5358 46.2457C30.2341 45.7911 29.9766 45.3124 29.7674 44.8096C29.5583 44.3027 29.4014 43.7838 29.2927 43.2447C29.1882 42.7097 29.1318 42.1706 29.1318 41.6235C29.1318 41.0764 29.1882 40.5334 29.2927 39.9983C29.4014 39.4633 29.5583 38.9403 29.7674 38.4375C29.9766 37.9306 30.2341 37.4519 30.5358 36.9973C30.8415 36.5428 31.1835 36.1244 31.5737 35.7342C31.9598 35.348 32.3782 35.0061 32.8328 34.7003C33.2874 34.3986 33.7661 34.1412 34.2729 33.932C34.7758 33.7228 35.2988 33.5659 35.8338 33.4573C36.3688 33.3527 36.9119 33.2964 37.459 33.2964H62.4284C62.9755 33.2964 63.5185 33.3527 64.0536 33.4573C64.5886 33.5659 65.1115 33.7228 65.6144 33.932C66.1213 34.1412 66.6 34.3986 67.0545 34.7003C67.5091 35.0061 67.9315 35.348 68.3177 35.7342C68.7039 36.1244 69.0498 36.5428 69.3516 36.9973C69.6533 37.4519 69.9107 37.9306 70.1199 38.4375C70.3291 38.9403 70.486 39.4633 70.5946 39.9983C70.6992 40.5334 70.7555 41.0764 70.7555 41.6235V108.217C70.7555 108.764 70.6992 109.303 70.5946 109.838C70.486 110.377 70.3291 110.896 70.1199 111.403C69.9107 111.905 69.6533 112.384 69.3516 112.839C69.0498 113.293 68.7039 113.716 68.3177 114.102C67.9315 114.488 67.5091 114.834 67.0545 115.136C66.6 115.441 66.1213 115.695 65.6144 115.904C65.1115 116.113 64.5886 116.274 64.0536 116.379C63.5185 116.487 62.9755 116.54 62.4284 116.54Z" fill="white"/>
<path d="M87.4022 116.54C86.8994 116.54 86.4006 116.491 85.9058 116.403C85.411 116.31 84.9282 116.178 84.4576 115.997C83.9869 115.82 83.5363 115.598 83.1059 115.337C82.6755 115.079 82.2692 114.782 81.895 114.448C81.5169 114.114 81.1709 113.748 80.8612 113.354C80.5514 112.955 80.2779 112.537 80.0446 112.091C79.8112 111.644 79.6182 111.181 79.4693 110.699C79.3164 110.22 79.2119 109.729 79.1515 109.23C79.0871 108.731 79.0711 108.229 79.1032 107.726C79.1314 107.223 79.2078 106.728 79.3245 106.241C79.4452 105.751 79.6061 105.276 79.8153 104.817C80.0204 104.359 80.2658 103.92 80.5474 103.506C80.833 103.092 81.1549 102.705 81.5089 102.347C81.8629 101.989 82.249 101.667 82.6594 101.382C83.0737 101.092 83.5122 100.847 83.9708 100.638C84.4254 100.428 84.9001 100.264 85.3868 100.143L96.6265 97.335L98.6097 83.2432H91.5658C90.7452 83.2432 89.9326 83.1627 89.128 83.0018C88.3234 82.8449 87.543 82.6076 86.7867 82.2938C86.0305 81.98 85.3104 81.5938 84.6265 81.1393C83.9467 80.6847 83.3151 80.1658 82.7358 79.5865C82.1565 79.0072 81.6376 78.3756 81.183 77.6917C80.7284 77.0119 80.3423 76.2918 80.0285 75.5355C79.7147 74.7793 79.4774 73.9948 79.3205 73.1943C79.1596 72.3897 79.0791 71.5771 79.0791 70.7565V45.7831C79.0791 44.9624 79.1596 44.1539 79.3205 43.3493C79.4774 42.5447 79.7147 41.7643 80.0285 41.004C80.3423 40.2477 80.7284 39.5277 81.183 38.8478C81.6376 38.1639 82.1565 37.5364 82.7358 36.9571C83.3151 36.3738 83.9467 35.8589 84.6265 35.4043C85.3104 34.9457 86.0305 34.5636 86.7867 34.2498C87.543 33.936 88.3234 33.6987 89.128 33.5378C89.9326 33.3768 90.7452 33.2964 91.5658 33.2964H112.376C112.923 33.2964 113.462 33.3527 114.001 33.4573C114.536 33.5659 115.055 33.7228 115.562 33.932C116.065 34.1412 116.547 34.3986 117.002 34.7003C117.456 35.0061 117.875 35.348 118.261 35.7342C118.647 36.1244 118.993 36.5428 119.299 36.9973C119.601 37.4519 119.858 37.9306 120.067 38.4375C120.276 38.9403 120.433 39.4633 120.538 39.9983C120.646 40.5334 120.699 41.0764 120.699 41.6235C120.699 42.1706 120.646 42.7097 120.538 43.2447C120.433 43.7838 120.276 44.3027 120.067 44.8096C119.858 45.3124 119.601 45.7911 119.299 46.2457C118.993 46.7003 118.647 47.1227 118.261 47.5089C117.875 47.895 117.456 48.241 117.002 48.5427C116.547 48.8484 116.065 49.1019 115.562 49.3111C115.055 49.5202 114.536 49.6812 114.001 49.7857C113.462 49.8944 112.923 49.9467 112.376 49.9467H95.7253V66.5929H103.409C104.229 66.5929 105.042 66.6734 105.847 66.8343C106.651 66.9952 107.432 67.2325 108.188 67.5463C108.948 67.8601 109.664 68.2422 110.348 68.7008C111.028 69.1554 111.66 69.6703 112.239 70.2536C112.818 70.8329 113.337 71.4605 113.792 72.1443C114.246 72.8242 114.632 73.5443 114.946 74.3046C115.26 75.0608 115.497 75.8413 115.658 76.6458C115.815 77.4504 115.896 78.263 115.896 79.0796C115.896 79.683 115.851 80.2824 115.763 80.8778L112.291 105.228C112.174 106.044 111.941 106.829 111.591 107.581C111.241 108.329 110.787 109.013 110.236 109.625C109.68 110.24 109.049 110.763 108.337 111.189C107.629 111.612 106.872 111.926 106.072 112.127L89.4217 116.29C88.7579 116.455 88.0861 116.54 87.4022 116.54Z" fill="white"/>
</svg>
