<svg width="100" height="100" viewBox="0 0 100 100" fill="none" xmlns="http://www.w3.org/2000/svg">
<path d="M29.2184 75.0981C27.5153 75.0981 26.1299 73.7127 26.1299 72.0096V61.4731C26.2549 54.5252 30.6559 50.4054 37.8955 50.4054H60.4893C69.8903 50.4054 75.5049 45.1138 75.5049 36.2492V25.7127C75.5049 24.0096 76.8903 22.6294 78.5934 22.6294C80.2966 22.6294 81.6768 24.0096 81.6768 25.7127V36.0044C81.6768 48.5981 73.3643 56.5773 60.4893 56.5773H37.8955C33.0465 56.5773 32.3434 59.0825 32.3018 61.5356V72.0096C32.3018 73.7127 30.9215 75.0981 29.2184 75.0981Z" fill="white"/>
<mask id="mask0_353_90" style="mask-type:luminance" maskUnits="userSpaceOnUse" x="26" y="57" width="51" height="43">
<path d="M26 57.1709H76.6667V99.1709H26V57.1709Z" fill="white"/>
</mask>
<g mask="url(#mask0_353_90)">
<path d="M50.4893 98.7594C46.5153 98.7594 42.458 98.4469 38.5934 97.8167C31.0153 96.5355 26.1299 90.7178 26.1299 82.999V61.473C26.1299 59.7699 27.5153 58.3896 29.2184 58.3896C30.9215 58.3896 32.3018 59.7699 32.3018 61.473V82.9938C32.3018 87.6917 35.0309 90.9469 39.6038 91.723C46.7549 92.8844 54.6038 92.874 61.1247 91.6813C64.9788 91.0251 67.3955 90.0459 68.5413 88.6917C69.4684 87.5928 69.8643 85.8896 69.8643 82.9886V73.0303H52.8747C51.1663 73.0303 49.7861 71.6501 49.7861 69.9469C49.7861 68.2386 51.1663 66.8584 52.8747 66.8584H72.9528C74.6559 66.8584 76.0361 68.2386 76.0361 69.9469V82.9886C76.0361 85.973 75.7184 89.7646 73.2445 92.6813C71.0986 95.2178 67.5882 96.8324 62.1976 97.7542C58.5778 98.4261 54.5778 98.7594 50.4893 98.7594Z" fill="white"/>
</g>
<path d="M81.4326 73.0409H72.9535C71.2503 73.0409 69.8701 71.6554 69.8701 69.9523C69.8701 68.2492 71.2503 66.869 72.9535 66.869H81.4326C87.3805 66.869 90.2087 64.7596 91.5212 59.3534C93.5055 51.0461 93.5055 46.2179 91.516 37.8273C89.7139 30.3377 87.016 28.8013 83.5316 28.8013H81.6774V36.0044C81.6774 37.7075 80.2972 39.2127 78.5941 39.2127C76.891 39.2127 75.5055 37.9471 75.5055 36.244V25.7127C75.5055 24.0096 76.891 22.6294 78.5941 22.6294H83.5316C93.0993 22.6294 96.0941 30.4784 97.5212 36.3898C99.7191 45.6711 99.7191 51.5981 97.5212 60.7961C95.5576 68.9211 90.1462 73.0409 81.4326 73.0409Z" fill="white"/>
<path d="M58.0205 89.4992C54.0465 89.4992 50.8174 86.2648 50.8174 82.2909C50.8174 78.3221 54.0465 75.0981 58.0205 75.0981C61.9893 75.0981 65.2236 78.3221 65.2236 82.2909C65.182 86.2804 61.9528 89.4992 58.0205 89.4992ZM58.0205 81.27C57.4528 81.27 56.9893 81.7284 56.9893 82.2909C56.9893 83.4106 59.0361 83.4263 59.0465 82.2596C59.0465 81.7284 58.583 81.27 58.0205 81.27Z" fill="white"/>
<path d="M20.9945 76.124C19.2913 76.124 17.9111 74.7438 17.9111 73.0407V62.749C17.9111 50.1553 26.2236 42.1761 39.0986 42.1761H61.6924C66.5413 42.1761 67.2445 39.6709 67.2861 37.223V26.7438C67.2861 25.0407 68.6663 23.6553 70.3695 23.6553C72.0726 23.6553 73.458 25.0407 73.458 26.7438V37.2803C73.333 44.2334 68.932 48.348 61.6924 48.348H39.0986C29.6976 48.348 24.083 53.6396 24.083 62.5042V73.0407C24.083 74.7438 22.6976 76.124 20.9945 76.124Z" fill="white"/>
<path d="M70.3698 40.3687C68.6667 40.3687 67.2865 38.9833 67.2865 37.2801V15.7541C67.2865 11.0614 64.5573 7.80097 59.9844 7.02493C52.8333 5.86868 44.9844 5.87389 38.4635 7.0666C34.6094 7.72806 32.1927 8.70202 31.0469 10.051C30.1146 11.1499 29.7188 12.8531 29.7188 15.7541V25.7124H46.7135C48.4167 25.7124 49.7969 27.0979 49.7969 28.801C49.7969 30.5041 48.4167 31.8843 46.7135 31.8843H26.6354C24.9323 31.8843 23.5469 30.5041 23.5469 28.801V15.7541C23.5469 12.7697 23.8646 8.98327 26.3385 6.06139C28.4844 3.53014 31.9948 1.91035 37.3854 0.988475C44.5469 -0.3084 53.1615 -0.334442 60.9948 0.9416C68.5781 2.22285 73.4583 8.04056 73.4583 15.7593V37.2801C73.4583 38.9833 72.0781 40.3687 70.3698 40.3687Z" fill="white"/>
<mask id="mask1_353_90" style="mask-type:luminance" maskUnits="userSpaceOnUse" x="0" y="25" width="30" height="53">
<path d="M0 25.1709H30V77.1709H0V25.1709Z" fill="white"/>
</mask>
<g mask="url(#mask1_353_90)">
<path d="M20.9945 76.1239H16.057C6.48926 76.1239 3.49447 68.2749 2.06738 62.3634C-0.130534 53.0822 -0.130534 47.1551 2.06738 37.9572C4.03093 29.8322 9.44238 25.7124 18.1559 25.7124H26.6351C28.3382 25.7124 29.7184 27.0978 29.7184 28.8009C29.7184 30.5041 28.3382 31.8843 26.6351 31.8843H18.1559C12.208 31.8843 9.37988 33.9937 8.06738 39.3999C6.08301 47.7124 6.08301 52.5353 8.07259 60.9259C9.87467 68.4155 12.5726 69.952 16.057 69.952H17.9111V62.7489C17.9111 61.0457 19.2913 59.5405 20.9945 59.5405C22.6976 59.5405 24.083 60.8062 24.083 62.5093V73.0457C24.083 74.7437 22.6976 76.1239 20.9945 76.1239Z" fill="white"/>
</g>
<path d="M41.5674 23.6554C37.5986 23.6554 34.3643 20.4315 34.3643 16.4627C34.4007 12.4731 37.6351 9.25439 41.5674 9.25439C45.5413 9.25439 48.7705 12.4888 48.7705 16.4627C48.7705 20.4315 45.5413 23.6554 41.5674 23.6554ZM41.5674 15.4263C40.9945 15.4263 40.5413 15.895 40.5413 16.494C40.5413 17.5617 42.5986 17.5929 42.5986 16.4627C42.5986 15.9106 42.1195 15.4263 41.5674 15.4263Z" fill="white"/>
</svg>
