<svg width="158" height="132" viewBox="0 0 158 132" fill="none" xmlns="http://www.w3.org/2000/svg">
<path d="M143.386 55.8349H122.953V24.5866C122.953 24.5866 122.949 24.5866 122.949 24.5825C122.949 24.5784 122.953 24.5784 122.953 24.5743C122.953 8.61146 91.2782 0 61.4747 0C31.6752 0 0 8.61146 0 24.5743C0 24.5784 0.0041046 24.5825 0.0041046 24.5866L0 107.422C0 123.389 31.6752 132 61.4747 132C85.8068 132 107.512 126.594 117.223 118.188H143.386C151.193 118.188 157.543 111.834 157.543 104.027V69.9917C157.543 62.1848 151.193 55.8349 143.386 55.8349ZM72.2821 55.8349C64.4751 55.8349 58.1253 62.1848 58.1253 69.9917V70.357C27.702 69.7208 6.72334 60.6743 6.70692 52.5554V36.1493C17.5554 44.6458 39.9706 49.1526 61.4747 49.1526C82.9828 49.1526 105.398 44.6458 116.247 36.1493V52.5472C116.247 53.6144 115.844 54.7144 115.077 55.8349H72.2821ZM6.70692 79.9782V64.0975C17.0054 72.1549 37.7172 76.6248 58.1253 77.0599V97.7799C27.7266 97.1396 6.72334 88.0561 6.70692 79.9782ZM61.4747 6.70282C92.8256 6.70282 116.247 16.1393 116.247 24.5743C116.247 33.0133 92.8256 42.4498 61.4747 42.4498C30.1278 42.4498 6.70692 33.0133 6.70692 24.5743C6.70692 16.1393 30.1278 6.70282 61.4747 6.70282ZM61.4747 125.297C30.1278 125.297 6.70692 115.861 6.70692 107.422V91.4917C17.03 99.5654 37.8034 104.056 58.1705 104.487C58.4208 112.076 64.6311 118.188 72.2821 118.188H104.232C93.8682 122.584 78.2338 125.297 61.4747 125.297ZM150.836 104.027C150.836 108.14 147.495 111.481 143.386 111.481H72.2821C68.1734 111.481 64.8281 108.14 64.8281 104.027V69.9917C64.8281 65.883 68.1734 62.5378 72.2821 62.5378H143.386C147.495 62.5378 150.836 65.883 150.836 69.9917V104.027ZM78.2748 77.9588V81.2425C78.2748 81.5667 78.5375 81.8294 78.8618 81.8294H84.3907C88.4132 81.8294 91.6846 85.1008 91.6846 89.1233V92.4029C91.6846 96.4254 88.4132 99.6968 84.3907 99.6968H78.8618C74.8434 99.6968 71.572 96.4254 71.572 92.4029V91.5286C71.572 89.6774 73.0743 88.1751 74.9255 88.1751C76.7766 88.1751 78.2748 89.6774 78.2748 91.5286V92.4029C78.2748 92.7271 78.5375 92.9898 78.8618 92.9898H84.3907C84.7149 92.9898 84.9776 92.7271 84.9776 92.4029V89.1233C84.9776 88.799 84.7149 88.5322 84.3907 88.5322H78.8618C74.8434 88.5322 71.572 85.2609 71.572 81.2425V77.9588C71.572 73.9404 74.8434 70.669 78.8618 70.669H84.3907C88.4132 70.669 91.6846 73.9404 91.6846 77.9588C91.6846 79.8141 90.1823 81.3122 88.3311 81.3122C86.4799 81.3122 84.9776 79.8141 84.9776 77.9588C84.9776 77.6345 84.7149 77.3759 84.3907 77.3759H78.8618C78.5375 77.3759 78.2748 77.6345 78.2748 77.9588ZM117.778 92.2962V78.0696C117.778 73.9896 114.461 70.669 110.381 70.669H105.066C100.986 70.669 97.665 73.9896 97.665 78.0696V92.2962C97.665 96.3761 100.986 99.6968 105.066 99.6968H110.381C110.541 99.6968 110.689 99.6598 110.849 99.6475C112.922 101.72 116.058 102.554 118.919 101.704C121.743 100.497 117.297 97.6034 116.714 96.0601C117.375 94.9559 117.778 93.6753 117.778 92.2962ZM104.372 92.2962V78.0696C104.372 77.6838 104.684 77.3759 105.066 77.3759H110.381C110.763 77.3759 111.075 77.6838 111.075 78.0696V92.2962C111.075 92.682 110.763 92.9898 110.381 92.9898H105.066C104.684 92.9898 104.372 92.682 104.372 92.2962ZM144.593 92.2962C144.593 96.3761 141.276 99.6968 137.196 99.6968H131.881C127.801 99.6968 124.48 96.3761 124.48 92.2962V74.0225C124.48 72.1713 125.983 70.669 127.834 70.669C129.685 70.669 131.187 72.1713 131.187 74.0225V92.2962C131.187 92.682 131.499 92.9898 131.881 92.9898H137.196C137.578 92.9898 137.89 92.682 137.89 92.2962C137.89 90.445 139.392 88.9468 141.244 88.9468C143.095 88.9468 144.593 90.445 144.593 92.2962ZM39.2113 24.5743C39.2113 24.25 39.474 23.9873 39.7982 23.9873H46.5011C46.8253 23.9873 47.088 24.25 47.088 24.5743C47.088 24.8985 46.8253 25.1612 46.5011 25.1612H39.7982C39.474 25.1612 39.2113 24.8985 39.2113 24.5743ZM55.9704 24.5743C55.9704 24.25 56.2331 23.9873 56.5574 23.9873H63.2602C63.5844 23.9873 63.8471 24.25 63.8471 24.5743C63.8471 24.8985 63.5844 25.1612 63.2602 25.1612H56.5574C56.2331 25.1612 55.9704 24.8985 55.9704 24.5743ZM72.7295 24.5743C72.7295 24.25 72.9922 23.9873 73.3165 23.9873H80.0193C80.3435 23.9873 80.6062 24.25 80.6062 24.5743C80.6062 24.8985 80.3435 25.1612 80.0193 25.1612H73.3165C72.9922 25.1612 72.7295 24.8985 72.7295 24.5743Z" fill="white"/>
</svg>
