<svg width="144" height="101" viewBox="0 0 144 101" fill="none" xmlns="http://www.w3.org/2000/svg">
<mask id="mask0_353_92" style="mask-type:luminance" maskUnits="userSpaceOnUse" x="0" y="0" width="144" height="101">
<path d="M0 0H143.333V100.927H0V0Z" fill="white"/>
</mask>
<g mask="url(#mask0_353_92)">
<path d="M73.7399 100.219C54.3076 100.219 44.9639 90.9115 38.1357 84.1146C35.6201 80.9792 32.5055 78.651 28.7816 77.1354C24.6878 76.1302 19.1774 76.0625 12.8493 84.3385C12.3493 84.9948 11.7555 85.5469 11.068 85.9948C10.3753 86.4427 9.63053 86.7604 8.83366 86.9479C8.03158 87.1406 7.22428 87.1927 6.40658 87.1042C5.58887 87.0156 4.81283 86.7917 4.07324 86.4323C3.33366 86.0729 2.6722 85.6042 2.09928 85.0156C1.52116 84.4323 1.05762 83.7656 0.713867 83.0208C0.36491 82.276 0.156576 81.4948 0.0784507 80.6771C0.000325388 79.8594 0.0628254 79.0521 0.265951 78.2552C5.52637 57.6302 19.4222 46.7292 40.4639 46.7292C59.891 46.7292 69.2399 56.0365 76.0628 62.8333C78.5785 65.974 81.6982 68.2969 85.4222 69.8177C89.516 70.8125 95.0212 70.8854 101.354 62.6094C101.849 61.9583 102.443 61.4063 103.136 60.9583C103.823 60.5104 104.568 60.1927 105.365 60C106.167 59.8073 106.974 59.7604 107.792 59.849C108.61 59.9375 109.386 60.1615 110.125 60.5156C110.865 60.875 111.526 61.349 112.104 61.9323C112.677 62.5156 113.141 63.1823 113.49 63.9271C113.834 64.6719 114.047 65.4583 114.12 66.276C114.198 67.0938 114.136 67.901 113.933 68.6979C108.677 89.3177 94.7764 100.219 73.7399 100.219ZM29.1982 62.7083C30.1982 62.849 31.193 63.0417 32.1774 63.2865C35.3024 64.2708 38.2243 65.6771 40.9482 67.5C43.6722 69.3229 46.0837 71.4896 48.1878 74.0052C54.3701 80.1563 60.1982 85.9531 73.7399 85.9531C77.5941 86.0365 81.3493 85.4635 85.0003 84.2448C84.0003 84.099 83.0107 83.9063 82.0264 83.6667C78.9014 82.6823 75.9743 81.276 73.2555 79.4531C70.5316 77.6302 68.1149 75.4635 66.016 72.9479C59.8337 66.7969 54.0003 60.9948 40.4639 60.9948C36.6097 60.9115 32.8545 61.4844 29.1982 62.7083ZM102.266 53.8646C82.8337 53.8646 73.4795 44.5469 66.6514 37.75C64.141 34.6146 61.0264 32.2917 57.3076 30.776C53.2191 29.776 47.7035 29.7083 41.3753 37.9844C40.8753 38.6354 40.2816 39.1875 39.5941 39.6354C38.9066 40.0833 38.1618 40.4063 37.3597 40.5938C36.5628 40.7865 35.7503 40.8385 34.9326 40.75C34.1201 40.6563 33.3389 40.4375 32.5993 40.0781C31.8597 39.7188 31.2035 39.25 30.6253 38.6615C30.0472 38.0781 29.5837 37.4115 29.2399 36.6667C28.891 35.9219 28.6826 35.1406 28.6045 34.3177C28.5264 33.5 28.5941 32.6927 28.792 31.8958C34.0524 11.276 47.9482 0.375 68.9899 0.375C88.417 0.375 97.766 9.68229 104.589 16.4792C107.104 19.6146 110.224 21.9427 113.948 23.4583C118.042 24.4583 123.547 24.5313 129.881 16.2552C130.375 15.599 130.969 15.0521 131.662 14.6042C132.349 14.1563 133.094 13.8333 133.891 13.6458C134.693 13.4531 135.5 13.401 136.318 13.4896C137.136 13.5781 137.912 13.8021 138.657 14.1615C139.396 14.5208 140.052 14.9896 140.631 15.5781C141.203 16.1615 141.667 16.8281 142.016 17.5729C142.36 18.3177 142.573 19.099 142.651 19.9167C142.724 20.7344 142.662 21.5469 142.459 22.3385C137.203 42.9635 123.302 53.8646 102.266 53.8646ZM57.7243 16.349C58.7243 16.4948 59.7191 16.6875 60.7035 16.9271C63.8285 17.9167 66.7503 19.3177 69.4743 21.1406C72.1982 22.9635 74.6097 25.1354 76.7139 27.6458C82.6201 33.5365 88.7243 39.599 102.266 39.599C106.12 39.6823 109.875 39.1094 113.532 37.8854C112.526 37.7448 111.537 37.5521 110.552 37.3125C107.427 36.3229 104.5 34.9219 101.782 33.099C99.0576 31.276 96.6462 29.1042 94.542 26.5938C88.3597 20.4427 82.5264 14.6406 68.9899 14.6406C65.1357 14.5573 61.3805 15.1302 57.7243 16.349Z" fill="white"/>
</g>
</svg>
